<?xml version="1.0" encoding="UTF-8"?>
<svg id="Grupo_182" xmlns="http://www.w3.org/2000/svg" xmlns:xlink="http://www.w3.org/1999/xlink" version="1.1" viewBox="0 0 239.27 209.27">
  <!-- Generator: Adobe Illustrator 30.2.1, SVG Export Plug-In . SVG Version: 2.1.1 Build 1)  -->
  <defs>
    <style>
      .st0 {
        fill: none;
      }

      .st1 {
        fill: #8e8e8e;
      }

      .st2 {
        fill: #ccc;
      }

      .st3 {
        fill: #c6c6c6;
      }

      .st4 {
        clip-path: url(#clippath-1);
      }

      .st5 {
        clip-path: url(#clippath-3);
      }

      .st6 {
        clip-path: url(#clippath-4);
      }

      .st7 {
        clip-path: url(#clippath-2);
      }

      .st8 {
        clip-path: url(#clippath-6);
      }

      .st9 {
        clip-path: url(#clippath-5);
      }

      .st10 {
        fill: #b0b0b0;
      }

      .st11 {
        fill: #fff;
      }

      .st12 {
        opacity: .2;
      }

      .st13 {
        fill: #414141;
      }

      .st14 {
        fill: #222;
      }

      .st15 {
        fill: #949494;
      }

      .st16 {
        fill: #cbcbcb;
      }

      .st17 {
        fill: #6a6a6a;
      }

      .st18 {
        fill: #aeaeae;
      }

      .st19 {
        clip-path: url(#clippath);
      }

      .st20 {
        fill: #cfcfcf;
      }
    </style>
    <clipPath id="clippath">
      <rect class="st0" width="239.27" height="209.27"/>
    </clipPath>
    <clipPath id="clippath-1">
      <rect class="st0" width="239.27" height="209.27"/>
    </clipPath>
    <clipPath id="clippath-2">
      <rect class="st0" x="88.56" y="90.57" width="11.76" height="31.75"/>
    </clipPath>
    <clipPath id="clippath-3">
      <rect class="st0" x="81.95" y="97.71" width="13.41" height="22.53"/>
    </clipPath>
    <clipPath id="clippath-4">
      <rect class="st0" x="107.01" y="65.99" width="57.13" height="16.59"/>
    </clipPath>
    <clipPath id="clippath-5">
      <rect class="st0" x="105.38" y="45.75" width="56.11" height="23.8"/>
    </clipPath>
    <clipPath id="clippath-6">
      <rect class="st0" x="125.1" y="56.53" width="46.48" height="41.9"/>
    </clipPath>
  </defs>
  <g class="st19">
    <g id="Grupo_181">
      <path id="Trazado_420" class="st13" d="M120.41,156.9l-6.67-17.9-54.34,66.06,5.11,4.21,47.04-57.18,6.93,18.61L225.25,25.6l-5.34-3.92-99.51,135.23Z"/>
      <path id="Trazado_421" class="st13" d="M191.95,34.95l38.64,15.46,2.76-39.19-41.4,23.74Z"/>
      <g id="Grupo_180">
        <g class="st4">
          <g id="Grupo_179">
            <path id="Trazado_422" class="st15" d="M137.85,39.08c-43.74-7.58-41.94,38.5-41.94,38.5,0,0-48.68,27.68-7.91,49.84l5.32,4.58,27.91-1.78,47.13-28.85,5.66,4.23s7.59-58.92-36.16-66.52"/>
            <g id="Grupo_166" class="st12">
              <g id="Grupo_165">
                <g class="st7">
                  <g id="Grupo_164">
                    <path id="Trazado_423" class="st11" d="M89.49,122.24c11.26-4.81,12.11-21.29,9.77-31.56-.06-.26-1.26.04-1.2.32,2.25,9.89,1.66,26.42-9.27,31.09-.73.31.41.28.69.16"/>
                  </g>
                </g>
              </g>
            </g>
            <g id="Grupo_169" class="st12">
              <g id="Grupo_168">
                <g class="st5">
                  <g id="Grupo_167">
                    <path id="Trazado_424" class="st11" d="M82.27,120.24c11.08.1,13.65-13.66,12.99-22.39-.02-.3-1.23-.07-1.2.32.57,7.46-1.23,21.58-11.29,21.5-.38,0-1.3.56-.5.57"/>
                  </g>
                </g>
              </g>
            </g>
            <g id="Grupo_172" class="st12">
              <g id="Grupo_171">
                <g class="st6">
                  <g id="Grupo_170">
                    <path id="Trazado_425" class="st11" d="M108.21,77.38c4.62-9.78,18.64-11.11,28.08-10.23,10.65,1.1,20.34,6.64,26.69,15.26.34.45,1.48-.03,1.1-.53-7.38-9.78-18.85-15.63-31.1-15.85-9.13-.31-21.6,2.08-25.91,11.22-.3.63.92.64,1.15.15"/>
                  </g>
                </g>
              </g>
            </g>
            <g id="Grupo_175" class="st12">
              <g id="Grupo_174">
                <g class="st9">
                  <g id="Grupo_173">
                    <path id="Trazado_426" class="st11" d="M106.57,69.2c3.43-11.85,13.97-21.93,26.52-22.96,10.75-.88,21.03,5.54,27.25,13.89.18.24,1.33-.15,1.13-.42-7.13-9.57-18.39-15.24-30.38-13.72-12.06,1.54-22.41,12.07-25.7,23.41-.08.28,1.09.12,1.18-.2"/>
                  </g>
                </g>
              </g>
            </g>
            <g id="Grupo_178" class="st12">
              <g id="Grupo_177">
                <g class="st8">
                  <g id="Grupo_176">
                    <path id="Trazado_427" class="st11" d="M126.1,59.75c10.01-6.71,25.82,1.1,33.01,8.76,7.41,7.9,10.29,19.17,11.26,29.66.04.49,1.25.21,1.2-.32-1.18-12.77-5.36-25.56-15.67-33.83-7.59-6.08-21.79-10.65-30.58-4.75-.68.45.33.78.78.47"/>
                  </g>
                </g>
              </g>
            </g>
            <path id="Trazado_428" class="st3" d="M146.83,142.86c-11.05,9.24-6.08,21.66-6.08,21.66h-5.66s-7.72-22.07-20.7-29.25c0,0-21.25,14.35-27.18,5.38-2.89-4.04-2.56-9.55.79-13.22,3.18-3.35,8.96-4.7,16.46-1.27,0,0-7.73-30.22,8-45.54s45.26,18.49,45.26,18.49l-.69-6.21,11.32,8.47c6.92,16.83-11.8,33.34-21.53,41.49"/>
            <path id="Trazado_429" class="st15" d="M138.63,126.58c.03,2.22-1.75,4.04-3.97,4.07s-4.04-1.75-4.07-3.97c-.03-2.22,1.75-4.04,3.97-4.07.02,0,.03,0,.05,0,2.2-.01,4,1.76,4.01,3.97,0,0,0,0,0,0"/>
            <path id="Trazado_430" class="st15" d="M135.23,136.38c.58,4.02-1.09,7.59-3.73,7.97s-5.26-2.56-5.85-6.58,1.09-7.59,3.73-7.97,5.26,2.56,5.84,6.58"/>
            <path id="Trazado_431" class="st11" d="M138.63,128.07l-3.55,12.61c-4.57,1.66-7.74-2.25-8.4-7.21-.83-6.21,4.84-13.1,4.84-13.1-.2,7.76,4.39,8.16,7.12,7.71"/>
            <path id="Trazado_432" class="st14" d="M133.01,141.48c-.63,0-1.25-.11-1.84-.32-2.52-.92-4.4-3.85-4.91-7.63-.84-6.32,4.68-13.14,4.92-13.43l.76-.93-.03,1.21c-.08,3.27.69,5.48,2.29,6.59,2.11,1.46,5.14.58,6,.28l.29-5.3.46.08c4.05.71,8.33-1.75,9.38-3.68.27-.5.29-.89.04-1.15-.2-.23-.49-.36-.8-.34-1.18.05-2.76,1.74-3.26,2.39l-.25.31-.32-.24c-7.64-5.56-9.34-17.38-9.41-17.88l.82-.11c.02.12,1.67,11.64,8.77,17.09.62-.71,2.17-2.33,3.62-2.39.55-.03,1.08.19,1.44.61.52.6.55,1.48.08,2.11-1.16,2.12-5.48,4.7-9.79,4.17l-.27,4.91-.24.1c-.17.07-4.18,1.68-7.03-.28-1.63-1.12-2.51-3.15-2.64-6.05-1.47,2.09-4.63,7.2-4.01,11.82.46,3.48,2.14,6.15,4.37,6.97,2.07.75,4.5-.07,7.05-2.39l.56.61c-2.43,2.21-4.47,2.87-6.05,2.87"/>
            <path id="Trazado_433" class="st14" d="M133.49,119.85l-7.86,2.54s4.35-4.61,8.43-3.36l-.57.83Z"/>
            <rect id="Rectángulo_123" class="st14" x="127.2" y="134.31" width="13.77" height=".41" transform="translate(-19.56 246.18) rotate(-81.1)"/>
            <path id="Trazado_434" class="st14" d="M129.51,139.51l-.4-.11,3.71-13.04.4.11-3.71,13.04Z"/>
            <rect id="Rectángulo_124" class="st14" x="123.95" y="128.61" width="10.67" height=".41" transform="translate(-46.42 178.17) rotate(-60.58)"/>
            <rect id="Rectángulo_125" class="st14" x="132.34" y="124.14" width=".41" height="10.97" transform="translate(-39.26 199.28) rotate(-66.43)"/>
            <path id="Trazado_435" class="st14" d="M122.45,119.58c-.6-3.87-1.62-15.41,4.34-15.64,5.23-.2,7.93,9.46,8.85,13.37.06.25,1.26-.05,1.2-.32-1.14-4.86-4.03-14.44-10.54-13.4-6.59,1.04-5.78,11.6-5.05,16.31.04.23,1.25-.03,1.2-.32"/>
            <path id="Trazado_436" class="st14" d="M115.3,117.84c1.09,1.94,4.61.96,6.2.27.78-.34.05-.56-.43-.35-1.22.53-3.74,1.23-4.56-.24-.19-.34-1.33.09-1.2.32"/>
            <path id="Trazado_437" class="st14" d="M115.72,113.9c-.38.96,1.1,2.18,1.8,2.58,1.19.54,2.54.64,3.8.28.47-.1,1.06-.62.22-.45-1.06.27-2.17.14-3.13-.38-.59-.34-1.81-1.48-1.51-2.24.09-.22-1.06-.1-1.18.21"/>
            <path id="Trazado_438" class="st14" d="M145.73,114.82c-.7-2.73-2.43-18.19,3.87-14.52,3.96,2.31,6,8.85,7.35,12.98.16.51,1.36.18,1.2-.32-.88-2.68-1.99-5.29-3.29-7.79-1.16-2.23-3.46-6.48-6.57-6.19-6.8.64-4.85,11.89-3.76,16.17.13.51,1.33.2,1.2-.32"/>
            <path id="Trazado_439" class="st14" d="M156.9,111.45c2.76.03,4.67-1.7,5.64-4.18.08-.2-1.07-.09-1.18.22-.62,1.59-1.74,3.5-3.67,3.48-.25,0-1.37.47-.78.48"/>
            <path id="Trazado_440" class="st14" d="M156.61,110.42c2.73-.3,3.26-3.79,3.36-6,.02-.59-1.19-.39-1.21.11-.05,1.3-.29,4.88-2.02,5.07-.65.07-.95.91-.12.82"/>
            <path id="Trazado_441" class="st14" d="M114.35,103.35l15.49-6.89-13.86,9.77-1.63-2.88Z"/>
            <path id="Trazado_442" class="st14" d="M137.92,90.56l17.15,3.05-17.42.25.27-3.3Z"/>
            <path id="Trazado_443" class="st14" d="M86.62,138.88c.5-3.62,2.9-6.7,6.29-8.08,5.68-2.18,10.22-.74,9.97,2.82s-10.06,8.64-8.13,1.99l-3.04,1.24,4.07-2.35s-2.26,4.63,2.06,3.41,5.67-5.7,2.87-6.92-10.32-1.12-14.09,7.89"/>
            <path id="Trazado_444" class="st2" d="M163.66,143.99s-.62-16.44,1.86-17.06.94,14.74.94,14.74c0,0,3.57-16.48,5.74-14.75s-4.96,18.63-4.96,18.63"/>
            <path id="Trazado_445" class="st2" d="M162.92,160.23l2.29-9.57s-6.82-3.72-4.96-6.67c1.57-2.48,7.86-1,9.81.73,4.35.43,5.89,2.92,4.93,5.32-1.24,3.1-5.12,2.33-5.12,2.33,0,0,.4,4.27.59,9.94"/>
            <path id="Trazado_446" class="st14" d="M165.06,150.93c-.19-.1-4.68-2.58-5.36-5.2-.18-.65-.08-1.35.28-1.91,1.17-1.85,4.49-1.67,6.98-.95,1.84.53,3.99,1.59,3.99,2.82,0,.32-.15.63-.41.82-1.4,1.05-6.4-.35-6.97-.52l.17-.6c2.02.59,5.55,1.27,6.43.62.1-.07.16-.19.16-.32,0-.59-1.32-1.59-3.54-2.23-2.46-.71-5.35-.77-6.27.69-.27.42-.35.94-.21,1.43.61,2.36,5.01,4.78,5.06,4.8l-.3.55Z"/>
            <rect id="Rectángulo_126" class="st14" x="168.08" y="145.86" width=".62" height="7.06" transform="translate(-56.58 141.48) rotate(-39.56)"/>
            <path id="Trazado_447" class="st14" d="M169.44,150.45l-.09-.61c1.21-.04,2.32-.65,3-1.65.37-.88.36-1.87-.03-2.74l.56-.26c.48,1.05.49,2.25.02,3.3-.77,1.18-2.05,1.91-3.46,1.97"/>
            <path id="Trazado_448" class="st2" d="M98,158.31s-7.47-14.66-9.93-13.99c-2.47.67,6.36,13.32,6.36,13.32,0,0-11.15-12.66-12.2-10.09s13.41,13.86,13.41,13.86"/>
            <path id="Trazado_449" class="st2" d="M106.55,172.13l-6.66-7.23s4.15-6.57,1.08-8.24c-2.58-1.4-7.35,2.96-8.21,5.42-3.58,2.5-3.72,5.42-1.71,7.05,2.6,2.1,5.61-.46,5.61-.46,0,0,1.73,3.93,4.33,8.97"/>
            <path id="Trazado_450" class="st14" d="M100.15,165.06c.12-.18,2.83-4.53,2.15-7.15-.16-.66-.59-1.21-1.18-1.53-1.93-1.05-4.74.73-6.55,2.57-1.35,1.36-2.71,3.33-2.11,4.41.15.28.43.47.75.51,1.73.24,5.42-3.43,5.83-3.85l-.44-.43c-1.48,1.5-4.23,3.81-5.31,3.67-.13-.01-.24-.09-.3-.2-.29-.51.39-2.03,2.01-3.67,1.8-1.82,4.3-3.28,5.82-2.46.45.24.76.66.87,1.15.61,2.35-2.05,6.62-2.07,6.66l.53.33Z"/>
            <path id="Trazado_451" class="st14" d="M96.16,168.85l1.28-6.94-.61-.11-1.28,6.94.61.11Z"/>
            <path id="Trazado_452" class="st14" d="M96.09,166.77l-.22-.58c-1.07.55-2.35.56-3.43.02-.75-.59-1.22-1.46-1.31-2.41l-.61.04c.09,1.15.67,2.2,1.59,2.89,1.24.65,2.72.67,3.98.04"/>
            <path id="Trazado_453" class="st1" d="M99.6,177.49l-3.42-5.59,7.45-6.62,2.27,6.1"/>
            <path id="Trazado_454" class="st1" d="M164.07,158.85l-.93-6.3,8.59,2.59-.83,4.97"/>
            <path id="Trazado_455" class="st1" d="M148.76,167.97l13.52,14.07v-26.9l10.35,2.62s-1.79,35.05-7.59,34.91-16.97-21.25-16.97-21.25l.69-3.45Z"/>
            <path id="Trazado_456" class="st16" d="M148.07,167.22l-3.7-6.64-.59-5.45-6.48,2.76v3.45l-1.93-3.45h-5.38l.74,2.7-1.52,2.24,10.79,40.05h3.94v-3.45l2.49,2.76,3.95-2.72-2.29-32.25Z"/>
            <path id="Trazado_457" class="st14" d="M134.71,163.62l-3.73-1.85.37-.74,2.75,1.36.86-4.57.82.15-1.07,5.65Z"/>
            <path id="Trazado_458" class="st14" d="M140.26,162.83l-2.95-4.36.68-.47,2.55,3.77,3.4-1.6.35.75-4.04,1.9Z"/>
            <rect id="Rectángulo_127" class="st14" x="140.44" y="161.52" width=".41" height="38.2" transform="translate(-28.91 26.82) rotate(-9.88)"/>
            <path id="Trazado_459" class="st1" d="M130.54,201.65l3.59-17.26-5.66-12.28s2.9,28.7-5.36,31.74-26.93-28.28-26.93-28.28l9.8-8.15,15.72,28.29s-.13-33.12,2.77-36.02c1.75-1.76,4.42-.42,6.25.9h0s11.41,41.95,11.41,41.95l.58,2.14-12.16-3.04Z"/>
            <path id="Trazado_460" class="st1" d="M156.35,198.19l-7.34,5.66-.41-3.79-4.23-39.48,9.21,8.77-4.14,8.14,6.9,20.7Z"/>
            <path id="Trazado_461" class="st18" d="M202.71,127.94c-2.41-.84-4.77-1.81-7.07-2.9-.39-.17-.8-.28-1.23-.33-4.11-.46-7.79-3.66-7.51-9.62.26-5.47,3.9-9.37,9.34-9.11,5.52.26,8.37,4.61,8.13,9.59-.2,4.12-2.25,6.94-4.67,7.9v.11c1.35.47,2.9.89,4.32,1.23l-1.31,3.13ZM200.03,115.53c.16-3.34-1.27-6.16-4.07-6.3s-4.55,2.54-4.71,5.96c-.16,3.45,1.35,6.17,4.13,6.3s4.49-2.4,4.66-5.96"/>
            <path id="Trazado_462" class="st3" d="M83.01,69.96c-4.28.86-8.6,1.48-12.95,1.88-.73.08-1.43.28-2.1.58-6.46,2.89-14.67,1.38-19.44-7.65-4.38-8.29-2.4-17.22,5.85-21.57,8.37-4.42,16.35-.48,20.34,7.08,3.3,6.25,2.72,12.19,0,15.72l.09.16c2.41-.49,5.05-1.21,7.43-1.94l.79,5.75ZM68.26,53.99c-2.67-5.06-7.24-7.98-11.49-5.74s-4.5,7.7-1.76,12.89c2.76,5.23,7.36,7.92,11.57,5.7,4.21-2.22,4.52-7.45,1.68-12.84"/>
            <path id="Trazado_463" class="st3" d="M218.49,100.77c-2.42-3.63-4.64-7.39-6.66-11.26-.35-.64-.8-1.22-1.34-1.72-5.13-4.88-6.86-13.05-.32-20.89,6-7.2,15.01-8.77,22.18-2.79,7.27,6.06,6.66,14.94,1.19,21.5-4.52,5.43-10.24,7.16-14.54,5.97l-.12.14c1.37,2.04,3.04,4.22,4.62,6.14l-5.01,2.92ZM227.66,81.05c3.67-4.4,4.63-9.73.94-12.81s-8.84-1.23-12.59,3.27c-3.79,4.54-4.52,9.82-.87,12.87s8.61,1.35,12.52-3.33"/>
            <path id="Trazado_464" class="st15" d="M2.82,144.59l-2.82-1.88,13.67-20.51,1.94,5.71,11.66-17.05,3.3,8.48,13.95-23.27,2.91,1.74-17.5,29.21-3.48-8.94-11.86,17.34-1.91-5.61-9.86,14.78Z"/>
            <path id="Trazado_465" class="st15" d="M35.8,98.97l13.46,7.69,3.39-17.65-16.85,9.96Z"/>
            <path id="Trazado_466" class="st17" d="M53.34,128.54l-8.01,15.19-14.93-9.68c4.65-7.82,14.76-10.38,22.58-5.73.12.07.24.14.36.22"/>
            <path id="Trazado_467" class="st15" d="M61.58,144.48c0,9.09-7.37,16.46-16.46,16.47-3.41,0-6.73-1.06-9.51-3.02l10.28-12.18,8.01-15.19c4.78,3.01,7.68,8.27,7.68,13.92"/>
            <path id="Trazado_468" class="st2" d="M44.23,145.41l-10.28,12.18c-7.02-4.96-9.04-14.47-4.65-21.86l14.93,9.68Z"/>
            <rect id="Rectángulo_128" class="st2" x="3.36" y="152.75" width="4.47" height="11.73"/>
            <rect id="Rectángulo_129" class="st15" x="9.95" y="146.13" width="4.47" height="18.35"/>
            <rect id="Rectángulo_130" class="st11" x="15.87" y="148.8" width="4.47" height="15.69" transform="translate(-4.44 .58) rotate(-1.63)"/>
            <path id="Trazado_469" class="st20" d="M178.93,17.44c0,9.63-7.81,17.44-17.44,17.44-9.63,0-17.44-7.81-17.45-17.44C144.04,7.81,151.85,0,161.48,0c0,0,0,0,0,0,9.63,0,17.44,7.81,17.44,17.44"/>
            <path id="Trazado_470" class="st10" d="M162.52,34.82c-10.02-1.47-16.95-10.79-15.47-20.81.75-5.1,3.61-9.65,7.89-12.53l1,1.47c-7.58,5.11-9.58,15.41-4.47,22.99,2.6,3.86,6.71,6.44,11.31,7.12l-.26,1.76Z"/>
            <path id="Trazado_471" class="st10" d="M163.36,32.2c-7,0-12.7-6.62-12.7-14.75s5.7-14.75,12.7-14.75,12.7,6.61,12.7,14.75-5.7,14.75-12.7,14.75M163.36,4.48c-6.02,0-10.92,5.82-10.92,12.97s4.9,12.97,10.92,12.97,10.92-5.82,10.92-12.97-4.9-12.97-10.92-12.97"/>
            <path id="Trazado_472" class="st10" d="M168.54,26.55c-1.91-.61-3.79-1.31-5.62-2.12-.31-.13-.64-.2-.97-.23-3.24-.27-6.2-2.7-6.12-7.38.08-4.3,2.85-7.45,7.13-7.37,4.34.08,6.68,3.43,6.6,7.35-.06,3.24-1.61,5.5-3.49,6.32v.09c1.07.34,2.3.64,3.42.87l-.96,2.48ZM166.15,16.86c.05-2.63-1.14-4.81-3.34-4.85s-3.52,2.1-3.57,4.79c-.05,2.71,1.2,4.81,3.39,4.85s3.47-1.99,3.52-4.79"/>
            <path id="Trazado_473" class="st20" d="M239.27,153.87c0,9.63-7.81,17.44-17.44,17.44-9.63,0-17.44-7.81-17.44-17.44s7.81-17.44,17.44-17.44h0c9.63,0,17.44,7.81,17.44,17.44"/>
            <path id="Trazado_474" class="st10" d="M222.87,171.24c-10.02-1.47-16.95-10.79-15.47-20.81.75-5.1,3.61-9.65,7.89-12.53l1,1.47c-7.58,5.11-9.58,15.41-4.47,22.99,2.6,3.86,6.71,6.44,11.31,7.12l-.26,1.76Z"/>
            <path id="Trazado_475" class="st10" d="M223.7,168.63c-7,0-12.7-6.62-12.7-14.75s5.7-14.75,12.7-14.75,12.7,6.62,12.7,14.75-5.7,14.75-12.7,14.75M223.7,140.91c-6.02,0-10.92,5.82-10.92,12.97s4.9,12.97,10.92,12.97,10.92-5.82,10.92-12.97-4.9-12.97-10.92-12.97"/>
            <path id="Trazado_476" class="st10" d="M228.88,162.98c-1.91-.61-3.79-1.31-5.62-2.12-.31-.13-.64-.2-.97-.23-3.24-.27-6.2-2.7-6.11-7.38.08-4.3,2.85-7.45,7.13-7.37,4.34.08,6.68,3.43,6.6,7.35-.06,3.24-1.61,5.5-3.49,6.32v.09c1.07.34,2.3.63,3.42.87l-.96,2.48ZM226.5,153.29c.05-2.63-1.14-4.81-3.34-4.85s-3.52,2.1-3.57,4.79c-.05,2.71,1.2,4.81,3.39,4.85s3.47-1.99,3.52-4.79"/>
            <path id="Trazado_477" class="st20" d="M113.17,25.34c0,6.39-5.18,11.58-11.58,11.58s-11.58-5.18-11.58-11.58,5.18-11.58,11.58-11.58c6.39,0,11.58,5.18,11.58,11.58"/>
            <path id="Trazado_478" class="st10" d="M102.28,36.87c-6.65-.98-11.25-7.16-10.27-13.81.5-3.39,2.4-6.41,5.24-8.32l.66.98c-5.03,3.39-6.36,10.22-2.97,15.26,1.73,2.56,4.45,4.28,7.51,4.73l-.17,1.17Z"/>
            <path id="Trazado_479" class="st10" d="M102.83,35.14c-4.65,0-8.43-4.39-8.43-9.79s3.78-9.79,8.43-9.79,8.43,4.39,8.43,9.79-3.78,9.79-8.43,9.79M102.83,16.74c-4,0-7.25,3.86-7.25,8.61s3.25,8.61,7.25,8.61,7.25-3.86,7.25-8.61-3.25-8.61-7.25-8.61"/>
            <path id="Trazado_480" class="st10" d="M106.27,31.39c-1.27-.4-2.51-.87-3.73-1.41-.21-.08-.42-.14-.64-.15-2.15-.18-4.12-1.79-4.06-4.9.05-2.85,1.89-4.94,4.74-4.89,2.88.05,4.43,2.28,4.38,4.88.11,1.73-.79,3.36-2.32,4.19v.06c.71.22,1.53.42,2.27.58l-.64,1.65ZM104.69,24.96c.03-1.74-.76-3.19-2.22-3.22s-2.33,1.39-2.37,3.18.8,3.19,2.25,3.22,2.3-1.32,2.34-3.18"/>
          </g>
        </g>
      </g>
    </g>
  </g>
</svg>