<svg id="Grupo_163" data-name="Grupo 163" xmlns="http://www.w3.org/2000/svg" xmlns:xlink="http://www.w3.org/1999/xlink" width="273.388" height="175.727" viewBox="0 0 273.388 175.727">
  <defs>
    <clipPath id="clip-path">
      <rect id="Rectángulo_117" data-name="Rectángulo 117" width="273.388" height="175.727" fill="none"/>
    </clipPath>
    <clipPath id="clip-path-3">
      <rect id="Rectángulo_112" data-name="Rectángulo 112" width="35.254" height="22.633" fill="none"/>
    </clipPath>
    <clipPath id="clip-path-4">
      <rect id="Rectángulo_113" data-name="Rectángulo 113" width="62.303" height="56.17" fill="none"/>
    </clipPath>
  </defs>
  <g id="Grupo_162" data-name="Grupo 162" clip-path="url(#clip-path)">
    <g id="Grupo_161" data-name="Grupo 161">
      <g id="Grupo_160" data-name="Grupo 160" clip-path="url(#clip-path)">
        <path id="Trazado_367" data-name="Trazado 367" d="M113.88,126.533H98.951l-4-5.557c-1.308,1.816-2.871,3.305-3.734,1.562-1.658-3.339,4.217-11.743,6.8-10.094s.658,5.591.658,5.591h12.029Z" transform="translate(22.315 27.542)" fill="#ffce00"/>
        <path id="Trazado_368" data-name="Trazado 368" d="M80.818,126.43s12.555-17.707,15.857-16.386,0,8.157,0,8.157l9.911,8.758s-9.118,21.67-14.536-1.323l-9.25,5.419Z" transform="translate(19.833 26.988)" fill="#ffce00"/>
        <path id="Trazado_369" data-name="Trazado 369" d="M89.836,123.667c5.418,22.993,14.536,1.323,14.536,1.323L96.462,118l7.119,7.119s-3.6,7.932-7.269,8.692-6.475-10.143-6.475-10.143" transform="translate(22.046 28.958)" fill="#001b42"/>
        <path id="Trazado_370" data-name="Trazado 370" d="M92.289,123.789h0a1.5,1.5,0,0,1-1.346-1c-1.274-2.575,1.435-7.47,3.784-9.577,1.395-1.252,2.67-1.614,3.59-1.027,2.851,1.821.888,5.927.8,6.1l-.712-.347c.017-.036,1.737-3.644-.518-5.084-.585-.376-1.546-.027-2.633.948-2.456,2.2-4.6,6.621-3.6,8.637.274.555.547.557.636.557,1.232,0,3.432-3.5,4.533-5.71l.71.352c-.512,1.026-3.168,6.151-5.243,6.151" transform="translate(22.238 27.464)" fill="#001b42"/>
        <path id="Trazado_371" data-name="Trazado 371" d="M91.112,122.1l10.263,5.06s-3.039,9.91-8.192,9.25-2.071-14.31-2.071-14.31" transform="translate(22.135 29.963)" fill="#ffce00"/>
        <path id="Trazado_372" data-name="Trazado 372" d="M98.034,133.767a23.726,23.726,0,0,0,3.338-6.612L91.106,122.1a43.209,43.209,0,0,0-.887,6.652l1.174-5.754,9.384,4.36Z" transform="translate(22.14 29.963)" fill="#001b42"/>
        <path id="Trazado_373" data-name="Trazado 373" d="M95.137,133.458l-.755-.244,2.674-8.308.755.244Z" transform="translate(23.162 30.653)" fill="#001b42"/>
        <rect id="Rectángulo_108" data-name="Rectángulo 108" width="8.792" height="0.793" transform="translate(115.199 163.318) rotate(-73.102)" fill="#001b42"/>
        <rect id="Rectángulo_109" data-name="Rectángulo 109" width="8.531" height="0.792" transform="translate(113.149 161.779) rotate(-76.095)" fill="#001b42"/>
        <path id="Trazado_374" data-name="Trazado 374" d="M106.443,129.684,99.7,115.546l8.986-.531,4.889,14.668Z" transform="translate(24.468 28.226)" fill="#0090bc"/>
        <path id="Trazado_375" data-name="Trazado 375" d="M128.753,120.163s-6.21,13.919-19.953,14.448l-7.928-18.1s16.386.979,26.824-12.952Z" transform="translate(24.755 25.413)" fill="#001b42"/>
        <path id="Trazado_376" data-name="Trazado 376" d="M79.65,122.749l6.608-5.858,3.567,13.651-8.037,2.384Z" transform="translate(19.547 28.686)" fill="#ffce00"/>
        <path id="Trazado_377" data-name="Trazado 377" d="M202.844,121.544s-5.74,11.767-12.082,5.82-1.714-18.766-1.714-18.766l8.451-3.7,2.911,5.82-5.289,2.775a4.838,4.838,0,0,1,2.847,4.828Z" transform="translate(45.993 25.742)" fill="#ffce00"/>
        <path id="Trazado_378" data-name="Trazado 378" d="M194,123.723l-.65-.453c2.361-3.387,3.223-6.195,2.559-8.344a4.4,4.4,0,0,0-2.382-2.689l.281-.739a5.145,5.145,0,0,1,2.861,3.194c.737,2.395-.162,5.432-2.669,9.03" transform="translate(47.449 27.362)" fill="#001b42"/>
        <rect id="Rectángulo_110" data-name="Rectángulo 110" width="6.078" height="0.792" transform="translate(242.913 150.624) rotate(-53.833)" fill="#001b42"/>
        <rect id="Rectángulo_111" data-name="Rectángulo 111" width="3.794" height="0.793" transform="matrix(0.673, -0.74, 0.74, 0.673, 242.605, 147.585)" fill="#001b42"/>
        <path id="Trazado_379" data-name="Trazado 379" d="M196.293,100.958l-4.211,2.112,5.153,11.739,5.73-3.609Z" transform="translate(47.138 24.776)" fill="#0090bc"/>
        <path id="Trazado_380" data-name="Trazado 380" d="M196.01,76.382s45.393-2.911,49.752,13.937-26.3,30.968-26.3,30.968l-6.337-14.174,22.127-12.83-28.873-4.955s17.377,49.355-38.123,56.492-77.9-35.48-34.885-60.058Z" transform="translate(27.202 18.698)" fill="#001b42"/>
        <path id="Trazado_381" data-name="Trazado 381" d="M138.407,125.692l-18.625-23.609,8.008-3.065-7.8-4.549,4.557-7.888,1.374.793-3.767,6.521,9.293,5.423-9.085,3.477,17.29,21.917Z" transform="translate(29.395 21.247)" fill="#0090bc"/>
        <path id="Trazado_382" data-name="Trazado 382" d="M133.32,131.388l-.679-1.433,48.7-23.024-7.56-7.135,15.28-3.612L184.947,82.72l1.516-.462,4.609,15.079-14.062,3.325,7.11,6.71Z" transform="translate(32.551 20.187)" fill="#0090bc"/>
        <path id="Trazado_383" data-name="Trazado 383" d="M129.412,89.65l9.5,31.119,45.6-40.237Z" transform="translate(31.759 19.763)" fill="#0090bc"/>
        <path id="Trazado_384" data-name="Trazado 384" d="M142.784,89.658l-6.211,4.756,4.625,5.419-5.961,11.339,2.245,7.358,7.266-6.409V99.569l9.663-7.8Z" transform="translate(33.188 22.003)" fill="#fff"/>
        <path id="Trazado_385" data-name="Trazado 385" d="M159.485,16.552c-3.75,3.813-5.677,7.2-6.271,10.2v.009l-3.643,9.22,8.59,28.147,35.282,14.667,4.733-11.386c10.118-45.533-38.691-50.854-38.691-50.854" transform="translate(36.706 4.062)" fill="#001b42"/>
        <g id="Grupo_156" data-name="Grupo 156" transform="translate(193.702 24.44)" opacity="0.2">
          <g id="Grupo_155" data-name="Grupo 155">
            <g id="Grupo_154" data-name="Grupo 154" clip-path="url(#clip-path-3)">
              <path id="Trazado_386" data-name="Trazado 386" d="M158.66,20.3a11.851,11.851,0,0,0-.761,1.556,15.9,15.9,0,0,0-1.176,4.461,11.064,11.064,0,0,0,1.1,6.305,12.429,12.429,0,0,0,2.235,2.92,16.2,16.2,0,0,0,3.122,2.267,23.492,23.492,0,0,0,3.546,1.631,32.3,32.3,0,0,0,3.64,1.11c1.2.325,2.378.523,3.493.74,1.121.194,2.191.318,3.172.466.989.095,1.9.183,2.7.262s1.509.1,2.087.137l1.822.1-1.823-.045c-.58-.022-1.288-.012-2.095-.07l-2.712-.177c-.99-.115-2.067-.205-3.2-.364-1.128-.183-2.325-.344-3.543-.634a32.777,32.777,0,0,1-3.726-1.005A24.021,24.021,0,0,1,162.85,38.4a16.848,16.848,0,0,1-3.341-2.27A13.28,13.28,0,0,1,157,33.067a12.1,12.1,0,0,1-1.422-6.853,16.987,16.987,0,0,1,1.111-4.845,12.932,12.932,0,0,1,.787-1.745Z" transform="translate(-155.533 -19.624)" fill="#fff"/>
              <path id="Trazado_387" data-name="Trazado 387" d="M159.781,24.747a3.391,3.391,0,0,0-.016.385,7.605,7.605,0,0,0,.07,1.081q.06.357.131.786l.258.905a9.546,9.546,0,0,0,.964,2.051,11.673,11.673,0,0,0,1.659,2.141l1.118,1a11.449,11.449,0,0,0,1.289.9,18.688,18.688,0,0,0,2.93,1.557c1.041.455,2.171.753,3.264,1.143l3.4.748c1.133.191,2.265.288,3.354.431a28.194,28.194,0,0,0,3.16.219l2.842.11,5.876-.173-5.873.385-2.854-.006a28.458,28.458,0,0,1-3.186-.1c-1.1-.1-2.249-.162-3.4-.314-1.148-.209-2.315-.423-3.482-.635-1.135-.357-2.3-.624-3.4-1.055a19.56,19.56,0,0,1-3.121-1.516,12.476,12.476,0,0,1-1.4-.909l-1.242-1.03a12.781,12.781,0,0,1-1.9-2.279,10.785,10.785,0,0,1-1.157-2.255c-.116-.362-.227-.7-.328-1.015q-.1-.486-.183-.89a8.865,8.865,0,0,1-.127-1.3,4.091,4.091,0,0,1,0-.46Z" transform="translate(-154.826 -18.391)" fill="#fff"/>
            </g>
          </g>
        </g>
        <path id="Trazado_388" data-name="Trazado 388" d="M222.694,74.14c-3.14,8.4-12.312,11.077-18.481,11.917-1.856,5.795-10.283,21.636-47.327,25.608-41.942,4.5-50-25.568-25.593-37.295a5.111,5.111,0,0,1-.824-4.924c2.752-6.913,13.733-4.955,13.733-4.955-1.237-21.914,10.267-34.433,16.855-39.745C158.045,40.111,190.052,45.2,190.052,45.2c-7,17.966,6.216,18.062,6.216,18.062v9.815a29.006,29.006,0,0,1,9.753-7.683c10.316-4.891,20.361-1.11,16.674,8.745" transform="translate(28.862 6.073)" fill="#ffce00"/>
        <path id="Trazado_389" data-name="Trazado 389" d="M149.3,82.649s-.017.073-.049.212a6.648,6.648,0,0,0-.1.659,6.205,6.205,0,0,0,.192,2.348,3.966,3.966,0,0,0,2.033,2.434,6.442,6.442,0,0,0,1.854.6,11.151,11.151,0,0,0,2.092.139,10.25,10.25,0,0,0,1.069-.054c.355-.03.711-.056,1.061-.116.7-.087,1.392-.227,2.059-.361,1.329-.294,2.556-.64,3.6-.966s1.905-.628,2.5-.856l.945-.344-.919.408c-.583.267-1.427.62-2.447,1.024s-2.234.832-3.561,1.219c-.666.182-1.355.372-2.072.511-.355.085-.721.138-1.087.194a10.6,10.6,0,0,1-1.111.131,12.008,12.008,0,0,1-2.259,0,7.451,7.451,0,0,1-2.192-.552,5.317,5.317,0,0,1-1.8-1.269,5.235,5.235,0,0,1-1.037-1.707,7.6,7.6,0,0,1-.442-2.877,8.072,8.072,0,0,1,.063-.817c.031-.2.049-.3.049-.3Z" transform="translate(36.231 20.198)" fill="#001b42"/>
        <path id="Trazado_390" data-name="Trazado 390" d="M167.922,66.775l.533.814a10.8,10.8,0,0,1,.579,1,12.29,12.29,0,0,1,.634,1.374c.081.268.166.545.254.836s.108.61.166.927a4.69,4.69,0,0,1-.23,2.041,4.355,4.355,0,0,1-1.2,1.812,7.048,7.048,0,0,1-1.812,1.222,15.5,15.5,0,0,1-4.014,1.239,29.6,29.6,0,0,1-3.614.422,33.9,33.9,0,0,1-3.541.044,33.332,33.332,0,0,0,3.527-.2,29.178,29.178,0,0,0,3.563-.578,15.166,15.166,0,0,0,3.846-1.375,6.52,6.52,0,0,0,1.624-1.2,3.7,3.7,0,0,0,.966-1.6,3.969,3.969,0,0,0,.117-1.731c-.066-.276-.1-.55-.183-.807s-.178-.5-.26-.737a11.472,11.472,0,0,0-.636-1.228,9.753,9.753,0,0,0-.583-.907l-.567-.788Z" transform="translate(38.203 16.387)" fill="#001b42"/>
        <path id="Trazado_391" data-name="Trazado 391" d="M163.614,67.387l.873.851s.893-1.744,4.68-1.488a7.791,7.791,0,0,0-5.553.638" transform="translate(40.152 16.321)" fill="#001b42"/>
        <path id="Trazado_392" data-name="Trazado 392" d="M158.711,71.061c-18.434,8.854-31.846,2.245-30.128-4.294S142.326,63,142.326,63l2.96-23.835a49.159,49.159,0,0,0-3.556,22.052S130.749,59.255,128,66.172s12.809,16.716,31.97,5.087a8.06,8.06,0,0,0-10.175-1.189Z" transform="translate(31.333 9.611)" fill="#001b42"/>
        <path id="Trazado_393" data-name="Trazado 393" d="M167.445,70.962c-.993.793-5.614-.4-5.614-.4s3.506,3.307,2.577,4.1c-.9.768-6.256-.872-6.532-.951.071.127,1.618,2.878.587,3.528-1.055.659-5.154-2.45-5.154-2.45s-.461,4.3-1.919,4.431-3.432-3.638-3.432-3.638-2.911,3.171-3.965,3.282,0-3.607,0-3.607-6.009,4.558-6.873,3.432c-.587-.777,2.227-5.455,4.043-8.3a34.52,34.52,0,0,0,16.508-5.376s-.135-.142-.381-.364c7.659-.634,11.014,5.628,10.158,6.31" transform="translate(33.63 15.855)" fill="#001b42"/>
        <path id="Trazado_394" data-name="Trazado 394" d="M200.476,61.8s-3.4-2.712-8.968.247-7,7-5.117,9.72,10.779.1,7.223-4.381l2.807-1.026-4.32.63s3.126,2.2.291,4.355-8.086.466-5.227-5.094S200.476,61.8,200.476,61.8" transform="translate(45.549 14.888)" fill="#001b42"/>
        <path id="Trazado_395" data-name="Trazado 395" d="M143.308,47.77s-1.994,11.993,2.8,13.249,6.433-12.077,6.433-12.077-3.12,11.1-6.253,10.7-1.744-12.151-1.744-12.151Z" transform="translate(35.068 11.654)" fill="#001b42"/>
        <path id="Trazado_396" data-name="Trazado 396" d="M152.03,49.245s-2.227,13.4,3.126,14.8,7.186-13.494,7.186-13.494-3.485,12.405-6.987,11.955-2.011-13.6-2.011-13.6Z" transform="translate(37.196 12.002)" fill="#001b42"/>
        <path id="Trazado_397" data-name="Trazado 397" d="M142.513,38.518l12.227,2.508-11.271,5.363Z" transform="translate(34.974 9.453)" fill="#001b42"/>
        <path id="Trazado_398" data-name="Trazado 398" d="M155.545,39.538l9.876,8.771L152.3,46.773Z" transform="translate(37.376 9.703)" fill="#001b42"/>
        <path id="Trazado_399" data-name="Trazado 399" d="M43.694,12.028,55.063,0s-44,5.415-45.985,44.534c0,0-23.6,2.4,5.3,32.595l7.552,10.481,23.488-6.875L61.557,30.748l16.626-4.187S66.029,7.532,43.694,12.028" transform="translate(0)" fill="#ff6700"/>
        <g id="Grupo_159" data-name="Grupo 159" transform="translate(13.234 14.843)" opacity="0.2">
          <g id="Grupo_158" data-name="Grupo 158">
            <g id="Grupo_157" data-name="Grupo 157" clip-path="url(#clip-path-4)">
              <path id="Trazado_400" data-name="Trazado 400" d="M68.75,22.87s-.163-.161-.431-.385-.673-.579-1.233-1.014c-.541-.443-1.257-.922-2.056-1.5-.839-.514-1.749-1.163-2.83-1.724-.536-.286-1.079-.619-1.67-.9l-1.844-.858a19.944,19.944,0,0,0-1.991-.8c-.692-.242-1.381-.554-2.117-.752A35.757,35.757,0,0,0,50,13.836c-.792-.125-1.588-.3-2.395-.387l-2.445-.156-1.225-.078-1.223.056-2.436.126c-1.612.118-3.166.506-4.7.735-1.507.336-2.918.853-4.287,1.24-.339.108-.68.2-1,.316l-.934.413c-.613.27-1.206.532-1.773.785a22.4,22.4,0,0,0-3.056,1.482c-.873.516-1.634.965-2.263,1.334l-1.974,1.166L22.206,19.6l2.2-1.453a22.525,22.525,0,0,1,3-1.648l1.752-.884.924-.466c.321-.139.661-.245,1-.372,1.364-.463,2.777-1.064,4.3-1.485,1.544-.314,3.123-.792,4.774-1l2.5-.258,1.264-.122,1.272.016,2.547.032c.846.045,1.68.186,2.513.274a37.81,37.81,0,0,1,4.841.905c.782.171,1.518.458,2.257.675a21.19,21.19,0,0,1,2.136.737c.68.275,1.344.543,1.984.8s1.227.587,1.807.861c1.171.534,2.168,1.167,3.086,1.671.883.564,1.666,1.035,2.278,1.486.615.428,1.1.793,1.437,1.064l.483.391Z" transform="translate(-8.254 -11.918)" fill="#fff"/>
              <path id="Trazado_401" data-name="Trazado 401" d="M62.941,21.791s-.834-.252-2.4-.609-3.813-.791-6.547-1.142a69.955,69.955,0,0,0-9.4-.539c-1.722.049-3.506.116-5.3.331a50.925,50.925,0,0,0-5.414.882,42.834,42.834,0,0,0-5.258,1.559,26.617,26.617,0,0,0-2.491,1.021c-.823.339-1.588.771-2.354,1.171a32.191,32.191,0,0,0-7.552,5.659,35.34,35.34,0,0,0-2.534,2.831c-.66.92-1.272,1.7-1.714,2.385l-1.346,2.183,1.247-2.245c.412-.706.989-1.517,1.613-2.475a35.784,35.784,0,0,1,2.426-2.972,32.877,32.877,0,0,1,7.43-6.114c.765-.445,1.531-.923,2.359-1.309a27.272,27.272,0,0,1,2.509-1.166,43.948,43.948,0,0,1,5.337-1.851,51.91,51.91,0,0,1,5.53-1.161c1.842-.308,3.671-.461,5.444-.592a71.944,71.944,0,0,1,9.7.115c2.835.233,5.185.58,6.827.873s2.6.533,2.6.533Z" transform="translate(-10.627 -10.541)" fill="#fff"/>
              <path id="Trazado_402" data-name="Trazado 402" d="M18.861,34.848l.23.257c.164.184.389.45.643.777.273.325.554.745.9,1.213.311.491.7,1.02,1.039,1.644a21.945,21.945,0,0,1,1.07,2.026c.381.717.648,1.539.986,2.353a25.982,25.982,0,0,1,.74,2.62,17.545,17.545,0,0,1,.427,2.769,16.686,16.686,0,0,1,.06,2.786,18.244,18.244,0,0,1-.308,2.665,19.071,19.071,0,0,1-.608,2.416,13.081,13.081,0,0,1-.785,2.077,12.926,12.926,0,0,1-.786,1.694l-.725,1.24-.63,1.075.527-1.131c.167-.359.369-.792.6-1.291a12.493,12.493,0,0,0,.615-1.735,12.664,12.664,0,0,0,.572-2.089,18.555,18.555,0,0,0,.366-2.374,17.361,17.361,0,0,0,.054-2.552,15.442,15.442,0,0,0-.3-2.6,16.086,16.086,0,0,0-.635-2.526A24.314,24.314,0,0,0,22,43.817c-.389-.721-.694-1.446-1.108-2.071a19.522,19.522,0,0,0-1.151-1.756c-.362-.538-.76-.984-1.08-1.4-.349-.389-.638-.745-.9-1.005-.26-.276-.457-.468-.588-.59-.148-.136-.225-.209-.225-.209Z" transform="translate(-9.075 -6.291)" fill="#fff"/>
              <path id="Trazado_403" data-name="Trazado 403" d="M19.148,39.82l.178.233c.133.174.311.422.5.722.209.3.41.689.664,1.12.21.455.493.942.7,1.522a14.264,14.264,0,0,1,.623,1.879,13.539,13.539,0,0,1,.365,2.178q.026.573.054,1.164c-.006.394-.062.791-.095,1.188a12.9,12.9,0,0,1-.494,2.356,18.738,18.738,0,0,1-.973,2.165,17.253,17.253,0,0,1-1.265,1.877c-.483.549-.928,1.092-1.384,1.569-.5.436-.964.848-1.4,1.227a8.549,8.549,0,0,1-1.233.953l-.99.679-.858.589.787-.682c.25-.215.554-.478.9-.78a8.276,8.276,0,0,0,1.1-1.069c.377-.415.785-.864,1.218-1.34.385-.509.75-1.077,1.146-1.64a16.242,16.242,0,0,0,.976-1.868,17.77,17.77,0,0,0,.654-2.036,11.467,11.467,0,0,0,.2-2.095c-.012-.346,0-.686-.03-1.021-.055-.333-.108-.661-.161-.984a11.488,11.488,0,0,0-.517-1.806,11.655,11.655,0,0,0-.709-1.529,13.51,13.51,0,0,0-.736-1.218c-.255-.338-.458-.646-.658-.868-.192-.239-.338-.4-.433-.5-.112-.118-.173-.181-.173-.181Z" transform="translate(-9.91 -5.071)" fill="#fff"/>
            </g>
          </g>
        </g>
        <path id="Trazado_404" data-name="Trazado 404" d="M74.124,92.255,71.437,94.1l-1.015,19.3L58,116.7,38.35,90.534s-12.851,10.308-22.1,2.38c-5.208-4.464-7.024-16.127-4.478-21.843,1.974-4.432,6.581-5.281,14.255,3.607l4.5-4.091L25.5,65.3s10.474-15.992-5.55-30.786l39-9.824C68.7,33.965,93.494,58.448,98,71.839c5.654,16.753-23.881,20.416-23.881,20.416" transform="translate(2.608 6.059)" fill="#ffce00"/>
        <path id="Trazado_405" data-name="Trazado 405" d="M49.755,86.7s12.29,3.668,15.857-.5S64.62,73.815,55.6,77.184l1.189-6.837Z" transform="translate(12.21 17.264)" fill="#ffce00"/>
        <path id="Trazado_406" data-name="Trazado 406" d="M57.685,69.4,56,77.544l-.544-.462,1.081-.318a5.493,5.493,0,0,1,1.1-.253l1.117-.167,1.137-.007a6.3,6.3,0,0,1,1.131.12c.187.031.377.051.562.092l.545.173a4.591,4.591,0,0,1,1.059.421,5.109,5.109,0,0,1,.981.579,5.181,5.181,0,0,1,.876.729,5.059,5.059,0,0,1,.744.863,4.817,4.817,0,0,1,.588.973l.249.514.166.544a4.972,4.972,0,0,1,.149.549l.071.565a4.946,4.946,0,0,1,.011,1.136,6.008,6.008,0,0,1-.215,1.116,10.931,10.931,0,0,1-.445,1.049c-.227.309-.422.621-.677.923a4.6,4.6,0,0,1-.871.722,6.812,6.812,0,0,1-2.066.846,15.734,15.734,0,0,1-4.39.3,39.445,39.445,0,0,1-8.6-1.575,39.354,39.354,0,0,0,8.613,1.37,15.473,15.473,0,0,0,4.305-.4,6.489,6.489,0,0,0,1.945-.847,4.146,4.146,0,0,0,.792-.691c.207-.26.4-.573.6-.856.126-.324.291-.636.386-.971a5.629,5.629,0,0,0,.172-1.03,4.5,4.5,0,0,0-.034-1.044L66.453,82a4.656,4.656,0,0,0-.151-.5L66.14,81l-.24-.467a4.232,4.232,0,0,0-.562-.879,4.53,4.53,0,0,0-.7-.775,4.73,4.73,0,0,0-.816-.649,4.554,4.554,0,0,0-.91-.508,4.274,4.274,0,0,0-.976-.361l-.5-.148c-.169-.032-.345-.046-.518-.07a5.428,5.428,0,0,0-1.042-.086l-1.051.03-1.042.182a5.181,5.181,0,0,0-1.025.262l-1.011.323-.666.212.122-.674,1.491-8.179Z" transform="translate(12.21 16.984)" fill="#001b42"/>
        <path id="Trazado_407" data-name="Trazado 407" d="M59.955,59.9l3.6,10.009c-23.984,14.073-23.192-1.8-23.192-1.8s1.223,13.128,21.7,1.564L59.031,59.631Z" transform="translate(9.905 14.634)" fill="#001b42"/>
        <path id="Trazado_408" data-name="Trazado 408" d="M59.013,44.4s7,18.275,6.212,19.927-10.3-.472-10.3-.472a2.677,2.677,0,0,1-3.145,1.1c-2.279-.55-.235-4.716,2.594-3.223,0,0-3.136.761-2.516,2.044s2.988-1.1,2.988-1.1l9.355.63Z" transform="translate(12.467 10.897)" fill="#001b42"/>
        <path id="Trazado_409" data-name="Trazado 409" d="M43.458,68.278l-.052-.049a1.475,1.475,0,0,0-.136-.116,3.749,3.749,0,0,0-.619-.392,4.165,4.165,0,0,0-.457-.2,4.252,4.252,0,0,0-.541-.151,2.955,2.955,0,0,0-.6-.071,3.966,3.966,0,0,0-.64.026c-.21.04-.427.085-.638.143-.2.082-.415.144-.607.238l-.548.3-.461.326a6.132,6.132,0,0,0-.654.553l-.244.22.193-.265a5.982,5.982,0,0,1,.538-.69c.123-.134.259-.28.4-.435.162-.138.334-.283.512-.433s.4-.263.61-.4c.222-.116.458-.222.7-.32a5.015,5.015,0,0,1,.761-.2,3.961,3.961,0,0,1,.77-.071,5.078,5.078,0,0,1,.727.046,5.731,5.731,0,0,1,.644.135,5,5,0,0,1,.934.347c.108.051.2.1.273.144l.085.051Z" transform="translate(9.144 16.267)" fill="#001b42"/>
        <path id="Trazado_410" data-name="Trazado 410" d="M56.249,41.759s5.079,14.391-.572,16.989-10.585-13.53-10.585-13.53S51.37,58.266,55.155,57.084s-.491-15.406-.491-15.406Z" transform="translate(11.066 10.228)" fill="#001b42"/>
        <path id="Trazado_411" data-name="Trazado 411" d="M46.056,45.477s5.673,16.079-.639,18.981S33.592,49.341,33.592,49.341,40.6,63.918,44.834,62.6s-.476-17.255-.476-17.255Z" transform="translate(8.244 11.127)" fill="#001b42"/>
        <rect id="Rectángulo_114" data-name="Rectángulo 114" width="16.475" height="3.965" transform="translate(34.447 53.693) rotate(-35.707)" fill="#ff6700"/>
        <rect id="Rectángulo_115" data-name="Rectángulo 115" width="15.572" height="3.964" transform="translate(50.196 38.95) rotate(-2.07)" fill="#ff6700"/>
        <path id="Trazado_412" data-name="Trazado 412" d="M14.189,74.291s-1.031-6.22,3.02-6.638,7.642,3.8,9.159,8.851-3.32,8.5-5.678-.173l-1.683.826,1.851-2.523s.721,5.325,3.29,5.972,2.913-5.662-2.305-10.775-7.654,4.461-7.654,4.461" transform="translate(3.453 16.595)" fill="#001b42"/>
        <path id="Trazado_413" data-name="Trazado 413" d="M99.052,138.465S68,160.935,48.578,149.963c-11.052-6.239-14.493-21.035-15.4-32.635a93.013,93.013,0,0,1,.064-15.731s1.07-.482,2.9-1.228c9.094-3.7,37.035-13.8,46.39-2.466,7.04,8.53,6.136,22.564,4.487,31.848a57.278,57.278,0,0,0,8.729-5.819Z" transform="translate(8.071 22.745)" fill="#001b42"/>
        <path id="Trazado_414" data-name="Trazado 414" d="M38.451,107.115l.26.761c.166.5.431,1.209.77,2.1.357.9.811,1.978,1.385,3.192a44.22,44.22,0,0,0,2.151,3.962,36.786,36.786,0,0,0,3.1,4.329,33.155,33.155,0,0,0,4.2,4.187,28,28,0,0,0,5.32,3.452,23.657,23.657,0,0,0,6.2,2.081,30.131,30.131,0,0,0,12.894-.629,49.464,49.464,0,0,0,10.628-4.127,62.457,62.457,0,0,0,6.926-4.2c1.605-1.121,2.467-1.839,2.467-1.839s-.846.737-2.427,1.9a63.025,63.025,0,0,1-6.848,4.359,49.98,49.98,0,0,1-10.618,4.394,30.77,30.77,0,0,1-13.156.923,24.469,24.469,0,0,1-6.471-2.014,29.141,29.141,0,0,1-5.588-3.452,34.381,34.381,0,0,1-4.454-4.243,37.965,37.965,0,0,1-3.3-4.407,45.348,45.348,0,0,1-2.31-4.039c-.621-1.238-1.112-2.341-1.5-3.257s-.668-1.659-.839-2.147-.279-.755-.279-.755Z" transform="translate(9.069 26.287)" fill="#fff"/>
        <path id="Trazado_415" data-name="Trazado 415" d="M46.776,112.647l1.437-6.119-6.177.923L41,97.346l1.681,9.207,6.575-.983-1.584,6.745L67,126.367Z" transform="translate(10.061 23.889)" fill="#fff"/>
        <path id="Trazado_416" data-name="Trazado 416" d="M61.393,132.212l9.578-25.867-6.1-2.412,4.143-3.506-3.289-7.309,4.257,7.528-3.587,3.035,5.592,2.212Z" transform="translate(15.066 22.852)" fill="#fff"/>
        <path id="Trazado_417" data-name="Trazado 417" d="M65.346,123.809,42.088,93.658,64.553,88.7Z" transform="translate(10.329 21.768)" fill="#ffce00"/>
        <path id="Trazado_418" data-name="Trazado 418" d="M52.749,91.781l-1.323,5.682,2.909,2.775,1.62,13.612,7.1,9.2-.284-12.592-6.058-10.224.527-4.567Z" transform="translate(12.62 22.524)" fill="#ff486b"/>
        <path id="Trazado_419" data-name="Trazado 419" d="M62.752,94.418l-1.892,3.4-6.78-5.838-1.7,8.221L46,98.105l5.816.808,2.014-7.956,7.035,5.7Z" transform="translate(11.288 22.322)" fill="#001b42"/>
      </g>
    </g>
  </g>
</svg>
